<mxfile host="app.diagrams.net" modified="2022-06-03T16:47:21.154Z" agent="5.0 (Macintosh; Intel Mac OS X 10_15_7) AppleWebKit/605.1.15 (KHTML, like Gecko) Version/15.4 Safari/605.1.15" etag="5qI2Ib6WoBI95qSAUcOd" version="19.0.0" type="github">
  <diagram id="au0NJiRwb0H63SD7Jq2o" name="Page-1">
    <mxGraphModel dx="946" dy="645" grid="1" gridSize="10" guides="1" tooltips="1" connect="1" arrows="1" fold="1" page="1" pageScale="1" pageWidth="827" pageHeight="1169" math="0" shadow="0">
      <root>
        <mxCell id="0" />
        <mxCell id="1" parent="0" />
        <mxCell id="0MbOEExsgdYzCz0NGTzT-1" value="" style="aspect=fixed;html=1;points=[];align=center;image;fontSize=12;image=img/lib/azure2/general/Cache.svg;" vertex="1" parent="1">
          <mxGeometry x="382" y="120" width="64" height="64" as="geometry" />
        </mxCell>
        <mxCell id="0MbOEExsgdYzCz0NGTzT-2" value="" style="aspect=fixed;perimeter=ellipsePerimeter;html=1;align=center;shadow=0;dashed=0;spacingTop=3;image;image=img/lib/active_directory/web_server.svg;" vertex="1" parent="1">
          <mxGeometry x="160" y="121" width="55.2" height="69" as="geometry" />
        </mxCell>
        <mxCell id="0MbOEExsgdYzCz0NGTzT-3" value="" style="verticalLabelPosition=bottom;html=1;verticalAlign=top;align=center;strokeColor=none;fillColor=#00BEF2;shape=mxgraph.azure.computer;pointerEvents=1;" vertex="1" parent="1">
          <mxGeometry x="580" y="127" width="60" height="53" as="geometry" />
        </mxCell>
      </root>
    </mxGraphModel>
  </diagram>
</mxfile>
